<svg xmlns="http://www.w3.org/2000/svg" xmlns:xlink="http://www.w3.org/1999/xlink" width="1381.71" height="179.596" viewBox="0 0 1381.71 179.596"><defs><linearGradient id="a" x1="1" y1="0.5" x2="0" y2="0.436" gradientUnits="objectBoundingBox"><stop offset="0" stop-color="#c4f9ae"/><stop offset="1" stop-color="#5b7a71" stop-opacity="0.478"/></linearGradient></defs><g transform="translate(-540.29 -900.404)"><path d="M15,0H1371a15,15,0,0,1,15,15V164a15,15,0,0,1-15,15l-1107.465-.7c-3.46,0-3.553-.264-10.91-4.033-2.8-1.435-6.991-3.184-12.971-6.5-7.151-3.961-19.891-9.214-33.358-17.322-4.488-2.7-16.161-9.026-28.875-16.464-2.958-1.73-6.223-3.674-9.431-5.636-6.9-4.222-13.461-8.6-19.149-12.441-4.421-2.986-8.262-5.618-10.76-7.166C106,88.857,115.708,94.187,98.043,81.346s-8.3-5.142-30.624-23.97C23.9,20.676.41,2.837,4.816,0,6.891-1.341,12.009,0,15,0Z" transform="translate(536 901)" fill="url(#a)"/></g></svg>