<svg xmlns="http://www.w3.org/2000/svg" xmlns:xlink="http://www.w3.org/1999/xlink" width="2182" height="1326.004" viewBox="0 0 2182 1326.004">
  <defs>
    <style>
      .cls-1 {
        fill: url(#linear-gradient);
      }

      .cls-2 {
        fill: url(#linear-gradient-2);
      }

      .cls-3 {
        fill: #0a382b;
      }

      .cls-4 {
        fill: url(#linear-gradient-3);
      }

      .cls-5, .cls-9 {
        fill: none;
      }

      .cls-5 {
        stroke: #7a9f71;
        stroke-width: 8px;
      }

      .cls-6 {
        fill: #cbe9c5;
        font-size: 27px;
        font-family: PMingLiU-ExtB;
      }

      .cls-7, .cls-8 {
        stroke: none;
      }

      .cls-8 {
        fill: #707070;
      }
    </style>
    <linearGradient id="linear-gradient" x1="0.416" y1="0.522" x2="1" y2="0.511" gradientUnits="objectBoundingBox">
      <stop offset="0" stop-opacity="0.42"/>
      <stop offset="1" stop-color="#29d9a7" stop-opacity="0.769"/>
    </linearGradient>
    <linearGradient id="linear-gradient-2" x1="0.5" x2="0.5" y2="0.403" gradientUnits="objectBoundingBox">
      <stop offset="0" stop-color="#bdd9b7"/>
      <stop offset="1" stop-color="#7a9f71"/>
    </linearGradient>
    <linearGradient id="linear-gradient-3" x1="0.963" y1="0.5" x2="0" y2="0.5" xlink:href="#linear-gradient-2"/>
  </defs>
  <g id="Group_426" data-name="Group 426" transform="translate(816.998 123.002)">
    <g id="Union_46" data-name="Union 46" class="cls-1" transform="translate(-9439 -23586)">
      <path class="cls-7" d="M 9325.7470703125 24788.501953125 C 9301.7578125 24788.501953125 9277.564453125 24787.3515625 9253.83984375 24785.08203125 C 9230.458984375 24782.84375 9206.9658203125 24779.466796875 9184.01171875 24775.041015625 C 9161.3544921875 24770.673828125 9138.6787109375 24765.1796875 9116.6142578125 24758.71484375 C 9094.796875 24752.322265625 9073.0576171875 24744.826171875 9052.0009765625 24736.435546875 C 9031.1396484375 24728.12109375 9010.45703125 24718.734375 8990.5263671875 24708.53515625 C 8970.73828125 24698.408203125 8951.23046875 24687.2421875 8932.5439453125 24675.349609375 C 8913.947265625 24663.513671875 8895.732421875 24650.6796875 8878.4052734375 24637.208984375 C 8861.1201171875 24623.76953125 8844.318359375 24609.3828125 8828.4658203125 24594.447265625 C 8812.61328125 24579.513671875 8797.3427734375 24563.68359375 8783.078125 24547.400390625 C 8768.779296875 24531.076171875 8755.1591796875 24513.916015625 8742.595703125 24496.3984375 C 8729.97265625 24478.79296875 8718.12109375 24460.416015625 8707.373046875 24441.775390625 C 8696.546875 24423 8686.583984375 24403.515625 8677.76171875 24383.86328125 C 8668.8564453125 24364.029296875 8660.900390625 24343.55078125 8654.115234375 24322.998046875 C 8647.25390625 24302.212890625 8641.423828125 24280.853515625 8636.7880859375 24259.51171875 C 8632.091796875 24237.888671875 8628.5068359375 24215.7578125 8626.1328125 24193.734375 C 8623.7236328125 24171.38671875 8622.501953125 24148.59765625 8622.501953125 24126 C 8622.501953125 24103.40234375 8623.7236328125 24080.61328125 8626.1328125 24058.265625 C 8628.5068359375 24036.2421875 8632.091796875 24014.111328125 8636.7880859375 23992.48828125 C 8641.423828125 23971.146484375 8647.25390625 23949.787109375 8654.115234375 23929.001953125 C 8660.900390625 23908.44921875 8668.8564453125 23887.970703125 8677.76171875 23868.13671875 C 8686.583984375 23848.484375 8696.546875 23829 8707.373046875 23810.224609375 C 8718.12109375 23791.583984375 8729.97265625 23773.20703125 8742.595703125 23755.6015625 C 8755.1591796875 23738.083984375 8768.779296875 23720.923828125 8783.078125 23704.599609375 C 8797.3427734375 23688.31640625 8812.61328125 23672.486328125 8828.4658203125 23657.552734375 C 8844.318359375 23642.6171875 8861.1201171875 23628.23046875 8878.4052734375 23614.791015625 C 8895.732421875 23601.3203125 8913.947265625 23588.486328125 8932.5439453125 23576.650390625 C 8951.23046875 23564.7578125 8970.73828125 23553.591796875 8990.5263671875 23543.46484375 C 9010.45703125 23533.265625 9031.1396484375 23523.87890625 9052.0009765625 23515.564453125 C 9073.0576171875 23507.173828125 9094.796875 23499.677734375 9116.6142578125 23493.28515625 C 9138.6787109375 23486.8203125 9161.3544921875 23481.326171875 9184.01171875 23476.958984375 C 9206.9658203125 23472.533203125 9230.458984375 23469.15625 9253.83984375 23466.91796875 C 9277.564453125 23464.6484375 9301.7578125 23463.498046875 9325.7470703125 23463.498046875 C 9341.3828125 23463.498046875 9357.1875 23463.98828125 9372.7236328125 23464.953125 C 9388.1064453125 23465.908203125 9403.6337890625 23467.35546875 9418.873046875 23469.255859375 C 9433.97265625 23471.138671875 9449.189453125 23473.513671875 9464.099609375 23476.31640625 C 9478.8837890625 23479.09375 9493.7568359375 23482.3671875 9508.3056640625 23486.041015625 C 9522.7421875 23489.6875 9537.2392578125 23493.82421875 9551.39453125 23498.33984375 C 9565.4501953125 23502.82421875 9579.5390625 23507.796875 9593.267578125 23513.12109375 C 9620.5107421875 23523.685546875 9647.330078125 23536.013671875 9672.98046875 23549.76171875 C 9723.9287109375 23577.06640625 9771.2236328125 23610.38671875 9813.55078125 23648.794921875 C 9855.826171875 23687.154296875 9892.9169921875 23730.3828125 9923.794921875 23777.27734375 L 9923.9423828125 23777.501953125 L 9924.2119140625 23777.501953125 L 10759.5078125 23777.501953125 C 10765.447265625 23777.501953125 10771.208984375 23778.6640625 10776.6328125 23780.958984375 C 10781.87109375 23783.173828125 10786.576171875 23786.34765625 10790.6162109375 23790.38671875 C 10794.6572265625 23794.427734375 10797.8291015625 23799.1328125 10800.044921875 23804.37109375 C 10802.3388671875 23809.794921875 10803.501953125 23815.556640625 10803.501953125 23821.49609375 C 10803.501953125 23827.166015625 10802.3916015625 23832.66796875 10800.201171875 23837.845703125 C 10798.0849609375 23842.84765625 10795.056640625 23847.33984375 10791.1982421875 23851.197265625 C 10787.33984375 23855.0546875 10782.84765625 23858.083984375 10777.8447265625 23860.19921875 C 10772.666015625 23862.388671875 10767.1640625 23863.5 10761.4921875 23863.5 L 9972.4052734375 23863.5 L 9971.626953125 23863.5 L 9971.9501953125 23864.20703125 C 9974.953125 23870.775390625 9977.888671875 23877.498046875 9980.67578125 23884.19140625 L 9980.8046875 23884.5 L 9981.1376953125 23884.5 L 10759.5078125 23884.5 C 10765.447265625 23884.5 10771.208984375 23885.662109375 10776.6328125 23887.95703125 C 10781.87109375 23890.171875 10786.576171875 23893.345703125 10790.6162109375 23897.384765625 C 10794.6572265625 23901.42578125 10797.8291015625 23906.130859375 10800.044921875 23911.369140625 C 10802.3388671875 23916.79296875 10803.501953125 23922.5546875 10803.501953125 23928.494140625 C 10803.501953125 23934.1640625 10802.3916015625 23939.666015625 10800.201171875 23944.84375 C 10798.0849609375 23949.845703125 10795.056640625 23954.337890625 10791.1982421875 23958.1953125 C 10787.33984375 23962.052734375 10782.84765625 23965.08203125 10777.8447265625 23967.197265625 C 10772.666015625 23969.38671875 10767.1640625 23970.498046875 10761.4921875 23970.498046875 L 10010.154296875 23970.498046875 L 10009.51171875 23970.498046875 L 10009.669921875 23971.12109375 C 10011.3525390625 23977.7421875 10012.9443359375 23984.466796875 10014.4033203125 23991.107421875 L 10014.4892578125 23991.5 L 10014.8916015625 23991.5 L 10759.5078125 23991.5 C 10765.447265625 23991.5 10771.208984375 23992.662109375 10776.6328125 23994.95703125 C 10781.87109375 23997.171875 10786.576171875 24000.345703125 10790.6162109375 24004.384765625 C 10794.6572265625 24008.42578125 10797.8291015625 24013.130859375 10800.044921875 24018.369140625 C 10802.3388671875 24023.79296875 10803.501953125 24029.5546875 10803.501953125 24035.494140625 C 10803.501953125 24041.1640625 10802.3916015625 24046.666015625 10800.201171875 24051.84375 C 10798.0849609375 24056.845703125 10795.056640625 24061.33984375 10791.1982421875 24065.197265625 C 10787.33984375 24069.056640625 10782.84765625 24072.0859375 10777.8447265625 24074.201171875 C 10772.666015625 24076.392578125 10767.1640625 24077.50390625 10761.4921875 24077.50390625 L 10027.6748046875 24077.50390625 L 10027.1357421875 24077.50390625 L 10027.17578125 24078.041015625 C 10027.677734375 24084.64453125 10028.08203125 24091.365234375 10028.3759765625 24098.01953125 L 10028.396484375 24098.498046875 L 10028.875 24098.498046875 L 10759.5078125 24098.498046875 C 10765.447265625 24098.498046875 10771.208984375 24099.66015625 10776.6328125 24101.955078125 C 10781.87109375 24104.169921875 10786.576171875 24107.34375 10790.6162109375 24111.3828125 C 10794.6572265625 24115.423828125 10797.8291015625 24120.12890625 10800.044921875 24125.3671875 C 10802.3388671875 24130.791015625 10803.501953125 24136.552734375 10803.501953125 24142.4921875 C 10803.501953125 24148.1640625 10802.3916015625 24153.666015625 10800.201171875 24158.84375 C 10798.0849609375 24163.84765625 10795.056640625 24168.33984375 10791.1982421875 24172.197265625 C 10787.33984375 24176.056640625 10782.84765625 24179.0859375 10777.8447265625 24181.201171875 C 10772.666015625 24183.390625 10767.1640625 24184.501953125 10761.4921875 24184.501953125 L 10026.7421875 24184.501953125 L 10026.287109375 24184.501953125 L 10026.244140625 24184.955078125 C 10025.62109375 24191.609375 10024.8837890625 24198.33203125 10024.05078125 24204.94140625 L 10023.98046875 24205.50390625 L 10024.546875 24205.50390625 L 10759.5078125 24205.50390625 C 10765.447265625 24205.50390625 10771.208984375 24206.666015625 10776.6328125 24208.9609375 C 10781.87109375 24211.17578125 10786.576171875 24214.34765625 10790.6162109375 24218.38671875 C 10794.6572265625 24222.427734375 10797.8291015625 24227.1328125 10800.044921875 24232.37109375 C 10802.3388671875 24237.794921875 10803.501953125 24243.556640625 10803.501953125 24249.498046875 C 10803.501953125 24255.16796875 10802.3916015625 24260.66796875 10800.201171875 24265.845703125 C 10798.0849609375 24270.84765625 10795.056640625 24275.33984375 10791.1982421875 24279.197265625 C 10787.33984375 24283.0546875 10782.84765625 24286.083984375 10777.8447265625 24288.19921875 C 10772.666015625 24290.388671875 10767.1640625 24291.5 10761.4921875 24291.5 L 10007.2509765625 24291.5 L 10006.869140625 24291.5 L 10006.7685546875 24291.8671875 C 10004.9453125 24298.53125 10002.984375 24305.255859375 10000.94140625 24311.853515625 L 10000.740234375 24312.501953125 L 10001.4189453125 24312.501953125 L 10759.5078125 24312.501953125 C 10765.447265625 24312.501953125 10771.208984375 24313.6640625 10776.6328125 24315.958984375 C 10781.87109375 24318.173828125 10786.576171875 24321.34765625 10790.6162109375 24325.38671875 C 10794.6572265625 24329.427734375 10797.8291015625 24334.1328125 10800.044921875 24339.37109375 C 10802.3388671875 24344.794921875 10803.501953125 24350.556640625 10803.501953125 24356.49609375 C 10803.501953125 24362.166015625 10802.3916015625 24367.66796875 10800.201171875 24372.845703125 C 10798.0849609375 24377.84765625 10795.056640625 24382.33984375 10791.1982421875 24386.197265625 C 10787.33984375 24390.0546875 10782.84765625 24393.083984375 10777.8447265625 24395.19921875 C 10772.666015625 24397.388671875 10767.1640625 24398.5 10761.4921875 24398.5 L 9967.2509765625 24398.5 L 9966.9365234375 24398.5 L 9966.7998046875 24398.783203125 C 9963.5908203125 24405.46484375 9960.216796875 24412.189453125 9956.7705078125 24418.767578125 L 9956.3876953125 24419.5 L 9957.2138671875 24419.5 L 10759.5078125 24419.5 C 10765.447265625 24419.5 10771.208984375 24420.662109375 10776.6328125 24422.95703125 C 10781.87109375 24425.171875 10786.576171875 24428.345703125 10790.6162109375 24432.384765625 C 10794.6572265625 24436.42578125 10797.8291015625 24441.130859375 10800.044921875 24446.369140625 C 10802.3388671875 24451.79296875 10803.501953125 24457.5546875 10803.501953125 24463.494140625 C 10803.501953125 24469.1640625 10802.3916015625 24474.666015625 10800.201171875 24479.84375 C 10798.0849609375 24484.845703125 10795.056640625 24489.337890625 10791.1982421875 24493.1953125 C 10787.33984375 24497.052734375 10782.84765625 24500.08203125 10777.8447265625 24502.197265625 C 10772.666015625 24504.38671875 10767.1640625 24505.498046875 10761.4921875 24505.498046875 L 9902.5029296875 24505.498046875 L 9902.251953125 24505.498046875 L 9902.1015625 24505.69921875 C 9897.09765625 24512.4296875 9891.896484375 24519.154296875 9886.6416015625 24525.6875 L 9885.9873046875 24526.5 L 9887.03125 24526.5 L 10759.5078125 24526.5 C 10765.447265625 24526.5 10771.208984375 24527.662109375 10776.6328125 24529.95703125 C 10781.87109375 24532.171875 10786.576171875 24535.345703125 10790.6162109375 24539.384765625 C 10794.6572265625 24543.42578125 10797.8291015625 24548.130859375 10800.044921875 24553.369140625 C 10802.3388671875 24558.79296875 10803.501953125 24564.5546875 10803.501953125 24570.494140625 C 10803.501953125 24576.1640625 10802.3916015625 24581.666015625 10800.201171875 24586.84375 C 10798.0849609375 24591.845703125 10795.056640625 24596.33984375 10791.1982421875 24600.197265625 C 10787.33984375 24604.056640625 10782.84765625 24607.0859375 10777.8447265625 24609.203125 C 10772.666015625 24611.392578125 10767.1640625 24612.50390625 10761.4921875 24612.50390625 L 9803.283203125 24612.50390625 L 9803.095703125 24612.50390625 L 9802.955078125 24612.626953125 C 9787.33203125 24626.232421875 9770.8642578125 24639.3203125 9754.0087890625 24651.529296875 C 9737.1015625 24663.77734375 9719.4013671875 24675.4296875 9701.40234375 24686.166015625 C 9683.3076171875 24696.958984375 9664.4775390625 24707.080078125 9645.435546875 24716.251953125 C 9626.25390625 24725.490234375 9606.39453125 24733.98828125 9586.41015625 24741.505859375 C 9566.2412109375 24749.091796875 9545.455078125 24755.8671875 9524.6279296875 24761.640625 C 9503.572265625 24767.4765625 9481.958984375 24772.435546875 9460.3896484375 24776.375 C 9438.5478515625 24780.36328125 9416.2099609375 24783.408203125 9393.9951171875 24785.421875 C 9371.4697265625 24787.466796875 9348.5078125 24788.501953125 9325.7470703125 24788.501953125 Z"/>
      <path class="cls-8" d="M 9325.7470703125 23463.998046875 C 9301.7734375 23463.998046875 9277.5966796875 23465.1484375 9253.8876953125 23467.416015625 C 9230.5224609375 23469.65234375 9207.044921875 23473.02734375 9184.1064453125 23477.44921875 C 9161.46484375 23481.814453125 9138.8037109375 23487.3046875 9116.7548828125 23493.765625 C 9094.9521484375 23500.154296875 9073.228515625 23507.64453125 9052.1865234375 23516.029296875 C 9031.3388671875 23524.3359375 9010.6708984375 23533.716796875 8990.7548828125 23543.91015625 C 8970.98046875 23554.029296875 8951.4853515625 23565.1875 8932.8115234375 23577.072265625 C 8914.228515625 23588.900390625 8896.02734375 23601.724609375 8878.7119140625 23615.185546875 C 8861.4404296875 23628.615234375 8844.650390625 23642.9921875 8828.80859375 23657.916015625 C 8812.9677734375 23672.83984375 8797.7080078125 23688.658203125 8783.4541015625 23704.9296875 C 8769.166015625 23721.240234375 8755.5556640625 23738.388671875 8743.001953125 23755.89453125 C 8730.388671875 23773.484375 8718.546875 23791.84765625 8707.8056640625 23810.474609375 C 8696.98828125 23829.234375 8687.033203125 23848.703125 8678.2177734375 23868.341796875 C 8669.3193359375 23888.16015625 8661.3701171875 23908.623046875 8654.58984375 23929.158203125 C 8647.734375 23949.92578125 8641.908203125 23971.26953125 8637.2763671875 23992.595703125 C 8632.583984375 24014.201171875 8629.001953125 24036.3125 8626.6298828125 24058.3203125 C 8624.22265625 24080.650390625 8623.001953125 24103.419921875 8623.001953125 24126 C 8623.001953125 24148.580078125 8624.22265625 24171.349609375 8626.6298828125 24193.6796875 C 8629.001953125 24215.6875 8632.583984375 24237.798828125 8637.2763671875 24259.404296875 C 8641.908203125 24280.73046875 8647.734375 24302.07421875 8654.58984375 24322.841796875 C 8661.3701171875 24343.376953125 8669.3193359375 24363.83984375 8678.2177734375 24383.658203125 C 8687.033203125 24403.296875 8696.98828125 24422.765625 8707.8056640625 24441.525390625 C 8718.546875 24460.15234375 8730.388671875 24478.515625 8743.001953125 24496.10546875 C 8755.5556640625 24513.611328125 8769.166015625 24530.759765625 8783.4541015625 24547.0703125 C 8797.7080078125 24563.341796875 8812.9677734375 24579.16015625 8828.80859375 24594.083984375 C 8844.650390625 24609.0078125 8861.4404296875 24623.384765625 8878.7119140625 24636.814453125 C 8896.02734375 24650.275390625 8914.228515625 24663.099609375 8932.8115234375 24674.927734375 C 8951.4853515625 24686.8125 8970.98046875 24697.970703125 8990.7548828125 24708.08984375 C 9010.6708984375 24718.283203125 9031.3388671875 24727.6640625 9052.1865234375 24735.970703125 C 9073.228515625 24744.35546875 9094.9521484375 24751.845703125 9116.7548828125 24758.234375 C 9138.8037109375 24764.6953125 9161.46484375 24770.185546875 9184.1064453125 24774.55078125 C 9207.044921875 24778.97265625 9230.5224609375 24782.34765625 9253.8876953125 24784.583984375 C 9277.5966796875 24786.8515625 9301.7734375 24788.001953125 9325.7470703125 24788.001953125 C 9348.4931640625 24788.001953125 9371.439453125 24786.966796875 9393.9501953125 24784.923828125 C 9416.1494140625 24782.91015625 9438.47265625 24779.869140625 9460.2998046875 24775.8828125 C 9481.8544921875 24771.9453125 9503.453125 24766.9921875 9524.4951171875 24761.158203125 C 9545.306640625 24755.388671875 9566.0791015625 24748.619140625 9586.234375 24741.037109375 C 9606.205078125 24733.525390625 9626.0498046875 24725.033203125 9645.21875 24715.80078125 C 9664.2470703125 24706.63671875 9683.064453125 24696.521484375 9701.146484375 24685.736328125 C 9719.1328125 24675.0078125 9736.8193359375 24663.36328125 9753.7158203125 24651.125 C 9770.55859375 24638.923828125 9787.0146484375 24625.84375 9802.6259765625 24612.25 L 9802.908203125 24612.00390625 L 10761.4921875 24612.00390625 C 10767.0966796875 24612.00390625 10772.533203125 24610.90625 10777.650390625 24608.7421875 C 10782.5927734375 24606.650390625 10787.0322265625 24603.65625 10790.8447265625 24599.84375 C 10794.6572265625 24596.03125 10797.650390625 24591.591796875 10799.740234375 24586.6484375 C 10801.904296875 24581.533203125 10803.001953125 24576.09765625 10803.001953125 24570.494140625 C 10803.001953125 24564.62109375 10801.8525390625 24558.92578125 10799.583984375 24553.564453125 C 10797.3935546875 24548.384765625 10794.2578125 24543.734375 10790.2626953125 24539.73828125 C 10786.2685546875 24535.744140625 10781.6171875 24532.607421875 10776.4375 24530.41796875 C 10771.076171875 24528.150390625 10765.3798828125 24527 10759.5078125 24527 L 9884.943359375 24527 L 9886.251953125 24525.373046875 C 9891.5029296875 24518.845703125 9896.7001953125 24512.125 9901.7001953125 24505.40234375 L 9902 24504.998046875 L 10761.4921875 24504.998046875 C 10767.0966796875 24504.998046875 10772.533203125 24503.900390625 10777.650390625 24501.736328125 C 10782.5927734375 24499.646484375 10787.0322265625 24496.654296875 10790.8447265625 24492.841796875 C 10794.6572265625 24489.029296875 10797.650390625 24484.58984375 10799.740234375 24479.6484375 C 10801.904296875 24474.53125 10803.001953125 24469.09765625 10803.001953125 24463.494140625 C 10803.001953125 24457.62109375 10801.8525390625 24451.92578125 10799.583984375 24446.564453125 C 10797.3935546875 24441.384765625 10794.2578125 24436.734375 10790.2626953125 24432.73828125 C 10786.2685546875 24428.744140625 10781.6171875 24425.607421875 10776.4375 24423.41796875 C 10771.076171875 24421.150390625 10765.3798828125 24420 10759.5078125 24420 L 9955.5615234375 24420 L 9956.328125 24418.53515625 C 9959.7724609375 24411.9609375 9963.1435546875 24405.2421875 9966.349609375 24398.56640625 L 9966.6220703125 24398 L 10761.4921875 24398 C 10767.0966796875 24398 10772.533203125 24396.90234375 10777.650390625 24394.73828125 C 10782.5927734375 24392.6484375 10787.0322265625 24389.65625 10790.8447265625 24385.84375 C 10794.6572265625 24382.03125 10797.650390625 24377.591796875 10799.740234375 24372.650390625 C 10801.904296875 24367.533203125 10803.001953125 24362.099609375 10803.001953125 24356.49609375 C 10803.001953125 24350.623046875 10801.8525390625 24344.927734375 10799.583984375 24339.56640625 C 10797.3935546875 24334.38671875 10794.2578125 24329.736328125 10790.2626953125 24325.740234375 C 10786.2685546875 24321.74609375 10781.6171875 24318.609375 10776.4375 24316.419921875 C 10771.076171875 24314.15234375 10765.3798828125 24313.001953125 10759.5078125 24313.001953125 L 10000.0625 24313.001953125 L 10000.4638671875 24311.70703125 C 10002.505859375 24305.109375 10004.46484375 24298.390625 10006.2861328125 24291.736328125 L 10006.4873046875 24291 L 10761.4921875 24291 C 10767.0966796875 24291 10772.533203125 24289.90234375 10777.650390625 24287.73828125 C 10782.5927734375 24285.6484375 10787.0322265625 24282.65625 10790.8447265625 24278.84375 C 10794.6572265625 24275.03125 10797.650390625 24270.59375 10799.740234375 24265.65234375 C 10801.904296875 24260.53515625 10803.001953125 24255.1015625 10803.001953125 24249.498046875 C 10803.001953125 24243.625 10801.8525390625 24237.927734375 10799.583984375 24232.56640625 C 10797.3935546875 24227.38671875 10794.2578125 24222.734375 10790.2626953125 24218.740234375 C 10786.2685546875 24214.74609375 10781.6171875 24211.611328125 10776.4375 24209.419921875 C 10771.076171875 24207.154296875 10765.3798828125 24206.00390625 10759.5078125 24206.00390625 L 10023.4130859375 24206.00390625 L 10023.5546875 24204.87890625 C 10024.38671875 24198.275390625 10025.1240234375 24191.556640625 10025.7470703125 24184.908203125 L 10025.8310546875 24184.001953125 L 10761.4921875 24184.001953125 C 10767.0966796875 24184.001953125 10772.533203125 24182.904296875 10777.650390625 24180.740234375 C 10782.5927734375 24178.650390625 10787.0322265625 24175.65625 10790.8447265625 24171.84375 C 10794.6572265625 24168.03125 10797.650390625 24163.59375 10799.740234375 24158.650390625 C 10801.904296875 24153.533203125 10803.001953125 24148.095703125 10803.001953125 24142.4921875 C 10803.001953125 24136.619140625 10801.8525390625 24130.923828125 10799.583984375 24125.5625 C 10797.3935546875 24120.3828125 10794.2578125 24115.732421875 10790.2626953125 24111.736328125 C 10786.2685546875 24107.7421875 10781.6171875 24104.60546875 10776.4375 24102.416015625 C 10771.076171875 24100.1484375 10765.3798828125 24098.998046875 10759.5078125 24098.998046875 L 10027.91796875 24098.998046875 L 10027.8759765625 24098.04296875 C 10027.58203125 24091.392578125 10027.1787109375 24084.677734375 10026.677734375 24078.080078125 L 10026.595703125 24077.00390625 L 10761.4921875 24077.00390625 C 10767.0966796875 24077.00390625 10772.533203125 24075.90625 10777.650390625 24073.7421875 C 10782.5927734375 24071.650390625 10787.0322265625 24068.65625 10790.8447265625 24064.84375 C 10794.6572265625 24061.03125 10797.650390625 24056.591796875 10799.740234375 24051.6484375 C 10801.904296875 24046.533203125 10803.001953125 24041.09765625 10803.001953125 24035.494140625 C 10803.001953125 24029.62109375 10801.8525390625 24023.92578125 10799.583984375 24018.564453125 C 10797.3935546875 24013.384765625 10794.2578125 24008.734375 10790.2626953125 24004.73828125 C 10786.2685546875 24000.744140625 10781.6171875 23997.607421875 10776.4375 23995.41796875 C 10771.076171875 23993.150390625 10765.3798828125 23992 10759.5078125 23992 L 10014.087890625 23992 L 10013.9150390625 23991.21484375 C 10012.45703125 23984.576171875 10010.865234375 23977.857421875 10009.1845703125 23971.244140625 L 10008.8681640625 23969.998046875 L 10761.4921875 23969.998046875 C 10767.0966796875 23969.998046875 10772.533203125 23968.900390625 10777.650390625 23966.736328125 C 10782.5927734375 23964.646484375 10787.0322265625 23961.654296875 10790.8447265625 23957.841796875 C 10794.6572265625 23954.029296875 10797.650390625 23949.58984375 10799.740234375 23944.6484375 C 10801.904296875 23939.53125 10803.001953125 23934.09765625 10803.001953125 23928.494140625 C 10803.001953125 23922.62109375 10801.8525390625 23916.92578125 10799.583984375 23911.564453125 C 10797.3935546875 23906.384765625 10794.2578125 23901.734375 10790.2626953125 23897.73828125 C 10786.2685546875 23893.744140625 10781.6171875 23890.607421875 10776.4375 23888.41796875 C 10771.076171875 23886.150390625 10765.3798828125 23885 10759.5078125 23885 L 9980.470703125 23885 L 9980.21484375 23884.384765625 C 9977.4296875 23877.6953125 9974.49609375 23870.978515625 9971.49609375 23864.416015625 L 9970.8486328125 23863 L 10761.4921875 23863 C 10767.0966796875 23863 10772.533203125 23861.90234375 10777.650390625 23859.73828125 C 10782.5927734375 23857.6484375 10787.0322265625 23854.65625 10790.8447265625 23850.84375 C 10794.6572265625 23847.03125 10797.650390625 23842.591796875 10799.740234375 23837.650390625 C 10801.904296875 23832.533203125 10803.001953125 23827.099609375 10803.001953125 23821.49609375 C 10803.001953125 23815.623046875 10801.8525390625 23809.927734375 10799.583984375 23804.56640625 C 10797.3935546875 23799.38671875 10794.2578125 23794.736328125 10790.2626953125 23790.740234375 C 10786.2685546875 23786.74609375 10781.6171875 23783.609375 10776.4375 23781.419921875 C 10771.076171875 23779.15234375 10765.3798828125 23778.001953125 10759.5078125 23778.001953125 L 9923.6728515625 23778.001953125 L 9923.376953125 23777.552734375 C 9892.5224609375 23730.693359375 9855.458984375 23687.498046875 9813.21484375 23649.1640625 C 9770.91796875 23610.783203125 9723.65625 23577.48828125 9672.7451171875 23550.201171875 C 9647.111328125 23536.462890625 9620.310546875 23524.14453125 9593.0869140625 23513.5859375 C 9579.3671875 23508.265625 9565.2890625 23503.296875 9551.2421875 23498.81640625 C 9537.0966796875 23494.3046875 9522.609375 23490.169921875 9508.18359375 23486.525390625 C 9493.64453125 23482.853515625 9478.78125 23479.583984375 9464.0078125 23476.806640625 C 9449.107421875 23474.005859375 9433.900390625 23471.6328125 9418.8115234375 23469.751953125 C 9403.58203125 23467.853515625 9388.0654296875 23466.40625 9372.6923828125 23465.451171875 C 9357.1669921875 23464.486328125 9341.3720703125 23463.998046875 9325.7470703125 23463.998046875 M 9325.7470703125 23462.998046875 C 9578.4833984375 23462.998046875 9800.109375 23588.5234375 9924.2119140625 23777.001953125 L 10759.5078125 23777.001953125 C 10784.08203125 23777.001953125 10804.001953125 23796.921875 10804.001953125 23821.49609375 C 10804.001953125 23844.96875 10784.9716796875 23864 10761.4921875 23864 L 9972.4052734375 23864 C 9975.431640625 23870.619140625 9978.3359375 23877.271484375 9981.1376953125 23884 L 10759.5078125 23884 C 10784.08203125 23884 10804.001953125 23903.919921875 10804.001953125 23928.494140625 C 10804.001953125 23951.966796875 10784.9716796875 23970.998046875 10761.4921875 23970.998046875 L 10010.154296875 23970.998046875 C 10011.8369140625 23977.619140625 10013.4208984375 23984.302734375 10014.8916015625 23991 L 10759.5078125 23991 C 10784.08203125 23991 10804.001953125 24010.919921875 10804.001953125 24035.494140625 C 10804.001953125 24058.966796875 10784.9716796875 24078.00390625 10761.4921875 24078.00390625 L 10027.6748046875 24078.00390625 C 10028.1787109375 24084.630859375 10028.580078125 24091.31640625 10028.875 24097.998046875 L 10759.5078125 24097.998046875 C 10784.08203125 24097.998046875 10804.001953125 24117.91796875 10804.001953125 24142.4921875 C 10804.001953125 24165.970703125 10784.9716796875 24185.001953125 10761.4921875 24185.001953125 L 10026.7421875 24185.001953125 C 10026.1162109375 24191.6875 10025.3818359375 24198.375 10024.546875 24205.00390625 L 10759.5078125 24205.00390625 C 10784.08203125 24205.00390625 10804.001953125 24224.91796875 10804.001953125 24249.498046875 C 10804.001953125 24272.970703125 10784.9716796875 24292 10761.4921875 24292 L 10007.2509765625 24292 C 10005.4169921875 24298.701171875 10003.4677734375 24305.384765625 10001.4189453125 24312.001953125 L 10759.5078125 24312.001953125 C 10784.08203125 24312.001953125 10804.001953125 24331.921875 10804.001953125 24356.49609375 C 10804.001953125 24379.96875 10784.9716796875 24399 10761.4921875 24399 L 9967.2509765625 24399 C 9964.01953125 24405.728515625 9960.6748046875 24412.392578125 9957.2138671875 24419 L 10759.5078125 24419 C 10784.08203125 24419 10804.001953125 24438.919921875 10804.001953125 24463.494140625 C 10804.001953125 24486.966796875 10784.9716796875 24505.998046875 10761.4921875 24505.998046875 L 9902.5029296875 24505.998046875 C 9897.4677734375 24512.76953125 9892.3251953125 24519.41796875 9887.03125 24526 L 10759.5078125 24526 C 10784.08203125 24526 10804.001953125 24545.919921875 10804.001953125 24570.494140625 C 10804.001953125 24593.966796875 10784.9716796875 24613.00390625 10761.4921875 24613.00390625 L 9803.283203125 24613.00390625 C 9677.8193359375 24722.2578125 9510.068359375 24789.001953125 9325.7470703125 24789.001953125 C 8937.076171875 24789.001953125 8622.001953125 24492.162109375 8622.001953125 24126 C 8622.001953125 23759.837890625 8937.076171875 23462.998046875 9325.7470703125 23462.998046875 Z"/>
    </g>
    <circle id="Ellipse_2" data-name="Ellipse 2" class="cls-2" cx="97" cy="97" r="97" transform="translate(305 53) rotate(90)"/>
    <ellipse id="Ellipse_3" data-name="Ellipse 3" class="cls-3" cx="90" cy="90.5" rx="90" ry="90.5" transform="translate(299 60) rotate(90)"/>
    <path id="Path_2" data-name="Path 2" class="cls-4" d="M-.368,0H65.167V7.66L-2.47,7.555Z" transform="translate(235.057 170.303)"/>
    <path id="Path_1" data-name="Path 1" class="cls-4" d="M-.373,7.511H64.992V0L-2.47.1Z" transform="translate(235.461 123.088)"/>
    <g id="Ellipse_4" data-name="Ellipse 4" class="cls-5" transform="translate(50 53)">
      <circle class="cls-7" cx="97" cy="97" r="97"/>
      <circle class="cls-9" cx="97" cy="97" r="93"/>
    </g>
    <rect id="Rectangle_4" data-name="Rectangle 4" class="cls-3" width="123" height="41" transform="translate(184 130)"/>
    <text id="Finding_solutions_to_current_financial_and_banking_problems" data-name="Finding solutions to current financial and banking problems" class="cls-6" transform="translate(513 220)"><tspan x="0" y="22">Finding solutions to current financial and banking problems</tspan></text>
    <text id="Finding_solutions_to_current_marketing_problems" data-name="Finding solutions to current marketing problems" class="cls-6" transform="translate(567 327)"><tspan x="0" y="22">Finding solutions to current marketing problems</tspan></text>
    <text id="Finding_solutions_to_current_service_problems" data-name="Finding solutions to current service problems" class="cls-6" transform="translate(590 431)"><tspan x="0" y="22">Finding solutions to current service problems</tspan></text>
    <text id="Finding_solutions_to_current_problems_related_to_time_" data-name="Finding solutions to current problems related to time
" class="cls-6" transform="translate(590 540)"><tspan x="0" y="22">Finding solutions to current problems related to time</tspan></text>
    <text id="Providing_consultations_and_new_development_ideas_" data-name="Providing consultations and new development ideas
" class="cls-6" transform="translate(574 646)"><tspan x="0" y="22">Providing consultations and new development ideas</tspan></text>
    <text id="Increase_spread_and_profit_" data-name="Increase spread and profit
" class="cls-6" transform="translate(545 754)"><tspan x="0" y="22">Increase spread and profit</tspan></text>
    <text id="Providing_appropriate_experiences" data-name="Providing appropriate experiences" class="cls-6" transform="translate(489 862)"><tspan x="0" y="22">Providing appropriate experiences</tspan></text>
    <text id="_The_possibility_of_follow-up_and_management_of_proposals_and_consultations" data-name="     The possibility of follow-up and management of proposals and consultations" class="cls-6" transform="translate(386 953)"><tspan x="0" y="22" xml:space="preserve">     The possibility of follow-up and management of proposals and </tspan><tspan x="0" y="59">consultations</tspan></text>
  </g>
</svg>
